<svg width="20" height="20" viewBox="0 0 24 24" fill="none" xmlns="http://www.w3.org/2000/svg">
  <path d="M12 2C13.1046 2 14 2.89543 14 4V6H18C19.1046 6 20 6.89543 20 8V18C20 19.1046 19.1046 20 18 20H6C4.89543 20 4 19.1046 4 18V8C4 6.89543 4.89543 6 6 6H10V4C10 2.89543 10.8954 2 12 2ZM8 10C7.44772 10 7 10.4477 7 11C7 11.5523 7.44772 12 8 12C8.55228 12 9 11.5523 9 11C9 10.4477 8.55228 10 8 10ZM16 10C15.4477 10 15 10.4477 15 11C15 11.5523 15.4477 12 16 12C16.5523 12 17 11.5523 17 11C17 10.4477 16.5523 10 16 10ZM8 14H16V16H8V14Z" fill="currentColor"/>
</svg>